<?xml version="1.0"?><svg xmlns="http://www.w3.org/2000/svg"  viewBox="0 0 30 30" width="60px" height="60px">    <path d="M 15 2 A 1 1 0 0 0 14.216797 2.3789062 L 9.3867188 7.2109375 A 1 1 0 0 0 9 8 A 1 1 0 0 0 10 9 L 13.044922 9 L 7.6347656 13.275391 L 7.6347656 13.277344 A 1.5 1.5 0 0 0 7 14.5 A 1.5 1.5 0 0 0 8.5 16 L 11.898438 16 L 5.6308594 21.277344 L 5.6308594 21.279297 A 1.5 1.5 0 0 0 5 22.5 A 1.5 1.5 0 0 0 6.5 24 L 13 24 L 13 27 C 13 27.552 13.448 28 14 28 L 16 28 C 16.552 28 17 27.552 17 27 L 17 24 L 23.5 24 A 1.5 1.5 0 0 0 25 22.5 A 1.5 1.5 0 0 0 24.369141 21.277344 L 18.101562 16 L 21.5 16 A 1.5 1.5 0 0 0 23 14.5 A 1.5 1.5 0 0 0 22.365234 13.275391 L 22.359375 13.269531 A 1.5 1.5 0 0 0 22.347656 13.261719 L 16.955078 9 L 20 9 A 1 1 0 0 0 21 8 A 1 1 0 0 0 20.613281 7.2109375 L 15.783203 2.3789062 A 1 1 0 0 0 15 2 z"/></svg>